<svg width="88" height="40" viewBox="0 0 88 40" fill="none" xmlns="http://www.w3.org/2000/svg">
<path d="M4.40972 18.2984H0V12.892H4.40972V10.0295C4.40972 3.39629 7.49306 0 14.4028 0C15.6806 0 17.3264 0.214867 18.125 0.478253V5.9955C17.5417 5.78063 16.4236 5.62121 15.4653 5.62121C12.2222 5.62121 11.1111 6.94507 11.1111 10.1819V12.8851H17.8056V18.2915H11.1111V39.3485H4.40972V18.2915V18.2984Z" fill="#1A1A1A"/>
<path d="M48.9931 12.892V39.3623H47.1319C44.6111 39.3623 42.5625 37.3176 42.5625 34.8016C41.0208 37.5048 37.5139 40 32.8889 40C25.0208 40 19.4931 33.7411 19.4931 26.1584C19.4931 18.5756 25.0208 12.2613 32.8889 12.2613C37.5139 12.2613 41.125 14.6456 42.4514 17.4597V12.899H48.9861L48.9931 12.892ZM34.1667 34.4828C38.5764 34.4828 42.2986 31.2459 42.2986 26.1514C42.2986 21.057 38.5764 17.7716 34.1667 17.7716C29.3819 17.7716 26.1944 21.5353 26.1944 26.1514C26.1944 30.7676 29.3819 34.4828 34.1667 34.4828Z" fill="#1A1A1A"/>
<path d="M59.8819 0.582222C62.1667 0.582222 63.8681 2.32889 63.8681 4.50529C63.8681 6.68169 62.1667 8.42835 59.8819 8.42835C57.5972 8.42835 55.8958 6.7302 55.8958 4.50529C55.8958 2.28037 57.6458 0.582222 59.8819 0.582222Z" fill="#005055"/>
<path d="M83.5139 12.892C85.7986 12.892 87.5 14.6387 87.5 16.8151C87.5 18.9915 85.7986 20.7382 83.5139 20.7382C81.2292 20.7382 79.5278 19.04 79.5278 16.8151C79.5278 14.5902 81.2778 12.892 83.5139 12.892Z" fill="#005055"/>
<path d="M63.2292 12.892H56.5347V39.3623H63.2292V12.892Z" fill="#1A1A1A"/>
<path d="M77.2569 12.892C73.6736 12.892 70.7708 15.7893 70.7708 19.3658V39.3623H77.2569V12.892Z" fill="#1A1A1A"/>
</svg>
